<?xml version="1.0" encoding="UTF-8"?>
<svg id="_레이어_1" data-name="레이어 1" xmlns="http://www.w3.org/2000/svg" xmlns:xlink="http://www.w3.org/1999/xlink" viewBox="0 0 496.42 86.16">
  <defs>
    <style>
      .cls-1 {
        fill: url(#_무제_그라디언트_2-5);
      }

      .cls-2 {
        fill: #f7f8f8;
      }

      .cls-3 {
        fill: url(#_무제_그라디언트_2);
      }

      .cls-4 {
        fill: url(#_무제_그라디언트_2-4);
      }

      .cls-5 {
        fill: #2aae93;
      }

      .cls-6 {
        fill: url(#_무제_그라디언트_2-3);
      }

      .cls-7 {
        fill: url(#_무제_그라디언트_2-2);
      }
    </style>
    <linearGradient id="_무제_그라디언트_2" data-name="무제 그라디언트 2" x1="0" y1="43.08" x2="63.49" y2="43.08" gradientUnits="userSpaceOnUse">
      <stop offset=".01" stop-color="#9ecc63"/>
      <stop offset=".55" stop-color="#2aae93"/>
    </linearGradient>
    <linearGradient id="_무제_그라디언트_2-2" data-name="무제 그라디언트 2" x1="20.41" y1="11.34" x2="83.9" y2="11.34" xlink:href="#_무제_그라디언트_2"/>
    <linearGradient id="_무제_그라디언트_2-3" data-name="무제 그라디언트 2" x1="20.41" y1="11.34" x2="83.9" y2="11.34" xlink:href="#_무제_그라디언트_2"/>
    <linearGradient id="_무제_그라디언트_2-4" data-name="무제 그라디언트 2" x1="20.41" y1="74.83" x2="83.9" y2="74.83" xlink:href="#_무제_그라디언트_2"/>
    <linearGradient id="_무제_그라디언트_2-5" data-name="무제 그라디언트 2" x1="20.41" y1="74.83" x2="83.9" y2="74.83" xlink:href="#_무제_그라디언트_2"/>
  </defs>
  <g>
    <g>
      <path class="cls-3" d="M52.15,54.42c-1.13,0-2.19-.15-3.22-.46-5.61-1.68-11.4-2.52-17.19-2.52s-11.58.84-17.19,2.52c-1.03.31-2.08.46-3.22.46-6.25,0-11.34-5.09-11.34-11.34s5.19-11.34,11.34-11.34c1.13,0,2.19.15,3.22.46,5.61,1.68,11.4,2.52,17.19,2.52s11.58-.84,17.19-2.52c1.03-.31,2.08-.46,3.22-.46,6.15,0,11.34,5.19,11.34,11.34s-5.09,11.34-11.34,11.34Z"/>
      <path class="cls-3" d="M52.15,54.42c-1.13,0-2.19-.15-3.22-.46-5.61-1.68-11.4-2.52-17.19-2.52s-11.58.84-17.19,2.52c-1.03.31-2.08.46-3.22.46-6.25,0-11.34-5.09-11.34-11.34s5.19-11.34,11.34-11.34c1.13,0,2.19.15,3.22.46,5.61,1.68,11.4,2.52,17.19,2.52s11.58-.84,17.19-2.52c1.03-.31,2.08-.46,3.22-.46,6.15,0,11.34,5.19,11.34,11.34s-5.09,11.34-11.34,11.34Z"/>
    </g>
    <circle class="cls-5" cx="92.97" cy="43.08" r="11.34"/>
    <g>
      <path class="cls-7" d="M72.56,22.67c-1.13,0-2.18-.15-3.22-.46-5.61-1.68-11.4-2.52-17.19-2.52s-11.58.84-17.19,2.52c-1.03.31-2.08.46-3.22.46-6.15,0-11.34-5.19-11.34-11.34S25.6,0,31.74,0c1.13,0,2.19.15,3.22.46,5.61,1.68,11.4,2.52,17.19,2.52s11.58-.84,17.19-2.52c1.03-.31,2.08-.46,3.22-.46,6.15,0,11.34,5.19,11.34,11.34s-5.19,11.34-11.34,11.34Z"/>
      <path class="cls-6" d="M72.56,22.67c-1.13,0-2.18-.15-3.22-.46-5.61-1.68-11.4-2.52-17.19-2.52s-11.58.84-17.19,2.52c-1.03.31-2.08.46-3.22.46-6.15,0-11.34-5.19-11.34-11.34S25.6,0,31.74,0c1.13,0,2.19.15,3.22.46,5.61,1.68,11.4,2.52,17.19,2.52s11.58-.84,17.19-2.52c1.03-.31,2.08-.46,3.22-.46,6.15,0,11.34,5.19,11.34,11.34s-5.19,11.34-11.34,11.34Z"/>
    </g>
    <g>
      <path class="cls-4" d="M72.56,86.16c-1.13,0-2.18-.15-3.22-.46-5.61-1.68-11.4-2.52-17.19-2.52s-11.58.84-17.19,2.52c-1.03.31-2.08.46-3.22.46-6.15,0-11.34-5.19-11.34-11.34s5.19-11.34,11.34-11.34c1.13,0,2.19.15,3.22.46,5.61,1.68,11.4,2.52,17.19,2.52s11.58-.84,17.19-2.52c1.03-.31,2.08-.46,3.22-.46,6.15,0,11.34,5.19,11.34,11.34s-5.19,11.34-11.34,11.34Z"/>
      <path class="cls-1" d="M72.56,86.16c-1.13,0-2.18-.15-3.22-.46-5.61-1.68-11.4-2.52-17.19-2.52s-11.58.84-17.19,2.52c-1.03.31-2.08.46-3.22.46-6.15,0-11.34-5.19-11.34-11.34s5.19-11.34,11.34-11.34c1.13,0,2.19.15,3.22.46,5.61,1.68,11.4,2.52,17.19,2.52s11.58-.84,17.19-2.52c1.03-.31,2.08-.46,3.22-.46,6.15,0,11.34,5.19,11.34,11.34s-5.19,11.34-11.34,11.34Z"/>
    </g>
  </g>
  <g>
    <path class="cls-2" d="M176.48,63.9V10.18h13.11v4.78c1.83-1.93,4.01-3.46,6.55-4.59,2.54-1.13,5.28-1.7,8.22-1.7,3.72,0,7.15.88,10.29,2.63,3.13,1.76,5.63,4.1,7.49,7.04,1.9-2.94,4.41-5.28,7.52-7.04,3.11-1.75,6.54-2.63,10.26-2.63,3.94,0,7.51.96,10.71,2.88,3.2,1.91,5.77,4.48,7.68,7.69,1.91,3.2,2.88,6.78,2.88,10.71v33.95h-13.11v-30.45c0-2.08-.51-3.99-1.53-5.73-1.02-1.73-2.38-3.13-4.08-4.19-1.7-1.06-3.61-1.58-5.72-1.58s-4.02.51-5.72,1.53c-1.7,1.02-3.07,2.39-4.11,4.11-1.04,1.72-1.56,3.67-1.56,5.86v30.45h-13.11v-30.45c0-2.19-.5-4.14-1.5-5.86-1-1.72-2.36-3.09-4.08-4.11-1.72-1.02-3.63-1.53-5.74-1.53s-3.98.52-5.7,1.58c-1.72,1.06-3.09,2.46-4.11,4.19-1.02,1.74-1.53,3.65-1.53,5.73v30.45h-13.11Z"/>
    <path class="cls-2" d="M417.57,64.87c-2.8-.18-5.49-.74-8.1-1.7-2.59-.94-4.89-2.25-6.9-3.89-2.01-1.64-3.55-3.62-4.62-5.91l11.06-4.73c.44.72,1.14,1.48,2.1,2.28.96.81,2.12,1.48,3.46,2.02,1.35.53,2.82.8,4.44.8,1.35,0,2.66-.18,3.88-.56,1.24-.38,2.24-.96,3.01-1.75s1.15-1.81,1.15-3.06c0-1.33-.45-2.36-1.36-3.1-.91-.73-2.06-1.29-3.44-1.66-1.36-.38-2.71-.73-3.99-1.05-3.41-.68-6.57-1.74-9.5-3.17-2.91-1.43-5.26-3.29-7.03-5.56-1.77-2.27-2.66-5.03-2.66-8.24,0-3.55.94-6.61,2.82-9.19,1.88-2.58,4.33-4.56,7.36-5.96,3.03-1.4,6.3-2.1,9.81-2.1,4.25,0,8.17.89,11.73,2.66,3.57,1.77,6.38,4.28,8.46,7.5l-10.37,6.12c-.51-.86-1.21-1.65-2.1-2.39-.89-.73-1.92-1.35-3.06-1.83-1.15-.49-2.34-.76-3.6-.84-1.61-.07-3.08.08-4.41.44-1.33.36-2.4.96-3.19,1.82-.81.87-1.22,2.01-1.22,3.44,0,1.36.54,2.37,1.62,3.03,1.08.66,2.37,1.17,3.89,1.53,1.52.36,2.99.75,4.39,1.18,3.15,1.04,6.1,2.31,8.88,3.81,2.78,1.5,5,3.35,6.68,5.53,1.7,2.19,2.5,4.8,2.43,7.84,0,3.48-1.05,6.51-3.13,9.11-2.06,2.6-4.74,4.57-8.03,5.94-3.27,1.36-6.77,1.9-10.49,1.61Z"/>
    <path class="cls-2" d="M377.87,10.18v5.26c-1.75-2.01-3.95-3.55-6.31-4.76-2.8-1.43-6.67-2.01-9.8-2.01-3.83,0-7.41.72-10.74,2.15-3.33,1.43-6.27,3.42-8.81,5.96-2.54,2.54-4.52,5.5-5.93,8.87-1.42,3.37-2.12,6.96-2.12,10.8s.74,7.69,2.23,11.17c1.49,3.47,3.55,6.53,6.18,9.18,2.63,2.65,5.69,4.73,9.16,6.23,3.48,1.5,7.2,2.26,11.17,2.26,3.16,0,6.24-.89,9.07-2.24,2.65-1.27,3.94-2.72,5.9-4.7.03.35.02.8.02,1.19v5.85h13.11V10.18h-13.11ZM375.02,44.91c-1.22,2.39-2.9,4.28-5.05,5.67-2.15,1.39-4.62,2.09-7.41,2.09s-5.22-.7-7.5-2.09c-2.27-1.4-4.09-3.28-5.45-5.65-1.36-2.36-2.04-4.99-2.04-7.9s.67-5.53,2.02-7.9c1.34-2.36,3.15-4.25,5.43-5.67,2.27-1.42,4.79-2.12,7.55-2.12s5.22.7,7.38,2.1c2.17,1.4,3.86,3.29,5.08,5.67,1.22,2.38,1.83,5.02,1.83,7.92s-.61,5.49-1.83,7.87Z"/>
    <path class="cls-2" d="M271.21,10.18v49.37s0,4.35,0,4.35v1.5s13.11,0,13.11,0v-1.5s0-4.35,0-4.35c0-.39,0-.85.02-1.19,1.95,1.98,3.25,3.43,5.9,4.7,2.83,1.36,5.91,2.24,9.07,2.24,3.97,0,7.7-.75,11.17-2.26,3.47-1.5,6.53-3.58,9.16-6.23,2.63-2.65,4.69-5.71,6.18-9.18,1.49-3.48,2.23-7.2,2.23-11.17,0-3.84-.71-7.43-2.12-10.8-1.41-3.37-3.39-6.32-5.93-8.87-2.54-2.54-5.48-4.53-8.81-5.96-3.33-1.43-6.91-2.15-10.74-2.15-3.13,0-7,.58-9.8,2.01-2.36,1.21-4.57,2.74-6.31,4.76v-5.26h-13.11ZM285.34,37.04c0-2.9.61-5.54,1.83-7.92,1.22-2.38,2.91-4.27,5.08-5.67,2.17-1.4,4.63-2.1,7.38-2.1,2.76,0,5.28.71,7.55,2.12,2.27,1.42,4.08,3.3,5.43,5.67,1.34,2.36,2.02,4.99,2.02,7.9,0,2.9-.68,5.53-2.04,7.9-1.36,2.37-3.18,4.25-5.45,5.65-2.28,1.39-4.77,2.09-7.5,2.09-2.79,0-5.26-.7-7.41-2.09-2.15-1.4-3.83-3.29-5.05-5.67-1.22-2.38-1.83-5-1.83-7.87Z"/>
    <polygon class="cls-2" points="455.16 85.12 469.09 85.12 496.42 10.18 482.51 10.18 469.4 45.96 457.85 10.18 443.51 10.18 462.84 63.9 455.16 85.12"/>
    <path class="cls-2" d="M151.01,48.27c-1.49,1.61-3.35,2.71-5.56,3.32-2.14.58-4.19.66-6.14.24-1.95-.43-3.69-1.24-5.24-2.46-1.54-1.22-2.84-2.71-3.87-4.51l37.72-10.9c-.61-4.29-1.99-8.18-4.15-11.66-2.16-3.47-4.84-6.36-8.03-8.64-3.19-2.28-6.72-3.79-10.56-4.53-3.85-.73-7.78-.52-11.81.64-3.54,1.02-6.68,2.69-9.4,5.01-2.72,2.31-4.9,5.07-6.54,8.23-1.64,3.18-2.65,6.61-3.04,10.28-.4,3.67-.05,7.39,1.03,11.13,1.44,4.99,3.92,9.21,7.44,12.67,3.52,3.46,7.58,5.85,12.19,7.16,4.61,1.32,9.29,1.28,14.04-.09,5.16-1.49,9.4-4.29,12.73-8.4,1.55-1.92,2.7-4.1,3.66-6.37l-11.22-6.86c-.67,2.2-1.75,4.11-3.24,5.71ZM127.93,29.16c.74-2.02,1.85-3.77,3.32-5.26,1.47-1.49,3.24-2.53,5.3-3.12,2.07-.6,4.13-.66,6.21-.18,2.07.48,3.97,1.38,5.67,2.69,1.7,1.32,3.04,2.95,4.02,4.91l-25.39,7.34c-.16-2.23.13-4.35.87-6.38Z"/>
    <path class="cls-5" d="M277.86,69.21c-3.62,0-6.55,2.42-6.55,5.41v5.94h.06c.33,2.74,3.09,4.88,6.49,4.88s6.16-2.15,6.49-4.88h.06v-5.94c0-2.99-2.93-5.41-6.55-5.41Z"/>
  </g>
</svg>