<?xml version="1.0" encoding="utf-8"?>
<!-- Generator: Adobe Illustrator 16.0.3, SVG Export Plug-In . SVG Version: 6.00 Build 0)  -->
<!DOCTYPE svg PUBLIC "-//W3C//DTD SVG 1.1//EN" "http://www.w3.org/Graphics/SVG/1.1/DTD/svg11.dtd">
<svg version="1.1" id="Layer_1" xmlns="http://www.w3.org/2000/svg" xmlns:xlink="http://www.w3.org/1999/xlink" x="0px" y="0px"
	 width="512px" height="512px" viewBox="0 0 512 512" style="enable-background:new 0 0 512 512;" xml:space="preserve">
<style type="text/css">
<![CDATA[
	.st0{fill:#14B6B9;}
	.st1{fill:#4B7BB2;}
	.st2{fill:#1E4384;}
	.st3{fill:#EF467F;}
	.st4{fill:#EF4823;}
	.st5{fill:#BCBCBC;}
	.st6{fill:#F26322;}
	.st7{fill:#F6851F;}
	.st8{fill:#283D5B;}
	.st9{fill:#2B8C5E;}
	.st10{fill:#FEBF10;}
	.st11{fill:none;}
	.st12{fill:#CBDB2D;}
	.st13{fill:#010101;}
	.st14{fill:#D03827;}
	.st15{fill:#3AB37C;}
	.st16{fill:#D6E5E5;}
]]>
</style>
<g>
	<g>
		<g>
			<path class="st5" d="M434.818,109.96c-34.744-42.606-83.744-74.064-138.771-81.513c-56.877-7.698-116.229,9.28-164.023,40.234
				c-23.217,15.036-44.832,33.642-60.797,56.39c-13.926,19.841-23.682,42.156-31.85,64.896c-0.029,0.443-0.113,0.912-0.275,1.408
				c-7.406,22.701-13.555,45.613-15.004,69.556c-1.451,23.997,1.053,48.438,7.92,71.501c7.691,25.835,17.99,50.9,33.828,72.885
				c15.885,22.051,36.324,39.789,60.58,52.119c25.107,12.766,52.475,20.25,80.309,24.105c27.252,3.775,55.217,5.002,82.678,3.068
				c54.639-3.846,109.4-21.719,145.873-64.527c35.105-41.203,51.971-96.342,52.898-149.969
				C489.189,211.958,471.756,155.259,434.818,109.96z M368.086,200.765c-0.002-1.61,0.811-3.352,2.225-4.145
				c0.555-1.228,1.682-2.148,3.41-2.148h30.736c6.932,0,14.586-0.826,21.311,1.305c11.57,3.667,11.484,15.832,10.531,25.966
				c-0.156,1.647-1.023,2.644-2.145,3.09c-0.541,1.186-1.664,2.06-3.426,2.06h-57.65c-4.287,0-5.637-5.213-3.383-7.481
				C368.08,213.335,368.088,207.024,368.086,200.765z M436.299,183.126c-0.156,1.648-1.023,2.645-2.145,3.09
				c-0.541,1.187-1.664,2.061-3.426,2.061h-57.65c-4.287,0-5.637-5.214-3.383-7.481c-1.615-6.076-1.607-12.388-1.609-18.646
				c-0.002-1.611,0.811-3.352,2.225-4.145c0.555-1.229,1.682-2.148,3.41-2.148h30.736c6.932,0,14.586-0.826,21.311,1.305
				C437.338,160.828,437.252,172.993,436.299,183.126z M296.059,197.914c0.555-1.229,1.682-2.148,3.41-2.148h30.736
				c6.932,0,14.586-0.826,21.311,1.305c11.57,3.667,11.484,15.833,10.531,25.966c-0.156,1.648-1.023,2.645-2.145,3.09
				c-0.541,1.187-1.664,2.061-3.426,2.061h-57.65c-4.287,0-5.637-5.214-3.383-7.481c-1.615-6.076-1.607-12.388-1.609-18.646
				C293.832,200.448,294.645,198.707,296.059,197.914z M223.387,156.297c0.555-1.228,1.68-2.147,3.41-2.147h30.736
				c6.932,0,14.586-0.826,21.309,1.305c11.572,3.667,11.486,15.832,10.531,25.965c-0.154,1.648-1.021,2.644-2.143,3.09
				c-0.541,1.186-1.664,2.06-3.426,2.06h-57.65c-4.287,0-5.637-5.213-3.383-7.481c-1.615-6.076-1.607-12.388-1.611-18.646
				C221.16,158.833,221.971,157.091,223.387,156.297z M223.387,194.914c0.555-1.229,1.68-2.148,3.41-2.148h30.736
				c6.932,0,14.586-0.826,21.309,1.305c11.572,3.667,11.486,15.833,10.531,25.965c-0.154,1.648-1.021,2.645-2.143,3.09
				c-0.541,1.186-1.664,2.06-3.426,2.06h-57.65c-4.287,0-5.637-5.213-3.383-7.481c-1.615-6.076-1.607-12.388-1.611-18.646
				C221.16,197.448,221.971,195.708,223.387,194.914z M143.193,378.772c-0.156,1.647-1.023,2.644-2.145,3.09
				c-0.539,1.186-1.664,2.06-3.426,2.06H79.975c-4.289,0-5.637-5.213-3.385-7.481c-1.615-6.076-1.607-12.388-1.609-18.646
				c-0.002-1.61,0.811-3.352,2.227-4.145c0.555-1.228,1.68-2.148,3.41-2.148h30.736c6.93,0,14.584-0.826,21.309,1.305
				C144.232,356.473,144.148,368.638,143.193,378.772z M143.193,340.156c-0.156,1.648-1.023,2.645-2.145,3.09
				c-0.539,1.187-1.664,2.061-3.426,2.061H79.975c-4.289,0-5.637-5.214-3.385-7.481c-1.615-6.076-1.607-12.388-1.609-18.646
				c-0.002-1.611,0.811-3.352,2.227-4.145c0.555-1.229,1.68-2.148,3.41-2.148h30.736c6.93,0,14.584-0.826,21.309,1.305
				C144.232,317.857,144.148,330.022,143.193,340.156z M143.193,299.83c-0.156,1.648-1.023,2.645-2.145,3.09
				c-0.539,1.186-1.664,2.06-3.426,2.06H79.975c-4.289,0-5.637-5.213-3.385-7.481c-1.615-6.076-1.607-12.388-1.609-18.646
				c-0.002-1.61,0.811-3.352,2.227-4.146c0.555-1.228,1.68-2.147,3.41-2.147h30.736c6.93,0,14.584-0.826,21.309,1.305
				C144.232,277.532,144.148,289.697,143.193,299.83z M143.193,261.214c-0.156,1.648-1.023,2.645-2.145,3.09
				c-0.539,1.187-1.664,2.061-3.426,2.061H79.975c-4.289,0-5.637-5.214-3.385-7.481c-1.615-6.076-1.607-12.388-1.609-18.646
				c-0.002-1.611,0.811-3.352,2.227-4.145c0.555-1.229,1.68-2.148,3.41-2.148h30.736c6.93,0,14.584-0.826,21.309,1.305
				C144.232,238.916,144.148,251.081,143.193,261.214z M216.322,377.46c-0.156,1.648-1.023,2.645-2.145,3.09
				c-0.541,1.187-1.664,2.061-3.426,2.061h-57.65c-4.287,0-5.635-5.214-3.383-7.481c-1.615-6.076-1.607-12.388-1.609-18.646
				c-0.002-1.611,0.811-3.352,2.225-4.145c0.555-1.229,1.682-2.148,3.41-2.148h30.736c6.932,0,14.586-0.826,21.311,1.305
				C217.361,355.162,217.275,367.327,216.322,377.46z M216.322,338.844c-0.156,1.648-1.023,2.645-2.145,3.09
				c-0.541,1.187-1.664,2.061-3.426,2.061h-57.65c-4.287,0-5.635-5.213-3.383-7.481c-1.615-6.076-1.607-12.388-1.609-18.646
				c-0.002-1.611,0.811-3.352,2.225-4.146c0.555-1.229,1.682-2.148,3.41-2.148h30.736c6.932,0,14.586-0.826,21.311,1.305
				C217.361,316.546,217.275,328.711,216.322,338.844z M289.373,375.294c-0.154,1.647-1.021,2.644-2.143,3.09
				c-0.541,1.187-1.664,2.061-3.426,2.061h-57.65c-4.287,0-5.637-5.214-3.383-7.481c-1.615-6.076-1.607-12.388-1.611-18.646
				c0-1.611,0.811-3.352,2.227-4.146c0.555-1.228,1.68-2.148,3.41-2.148h30.736c6.932,0,14.586-0.826,21.309,1.305
				C290.414,352.996,290.328,365.161,289.373,375.294z M289.373,336.678c-0.154,1.648-1.021,2.645-2.143,3.09
				c-0.541,1.187-1.664,2.061-3.426,2.061h-57.65c-4.287,0-5.637-5.213-3.383-7.481c-1.615-6.076-1.607-12.388-1.611-18.646
				c0-1.611,0.811-3.352,2.227-4.146c0.555-1.229,1.68-2.148,3.41-2.148h30.736c6.932,0,14.586-0.826,21.309,1.305
				C290.414,314.38,290.328,326.545,289.373,336.678z M289.705,296.353c-0.154,1.647-1.023,2.644-2.143,3.09
				c-0.541,1.186-1.666,2.06-3.426,2.06h-57.65c-4.287,0-5.637-5.213-3.383-7.481c-1.615-6.076-1.607-12.388-1.611-18.646
				c0-1.61,0.811-3.352,2.227-4.145c0.555-1.229,1.68-2.148,3.41-2.148h30.736c6.932,0,14.584-0.826,21.309,1.305
				C290.746,274.054,290.66,286.219,289.705,296.353z M289.705,257.737c-0.154,1.648-1.023,2.645-2.143,3.09
				c-0.541,1.187-1.666,2.061-3.426,2.061h-57.65c-4.287,0-5.637-5.214-3.383-7.481c-1.615-6.076-1.607-12.388-1.611-18.646
				c0-1.611,0.811-3.352,2.227-4.145c0.555-1.229,1.68-2.148,3.41-2.148h30.736c6.932,0,14.584-0.826,21.309,1.305
				C290.746,235.438,290.66,247.604,289.705,257.737z M362.047,378.294c-0.156,1.648-1.023,2.644-2.145,3.09
				c-0.541,1.186-1.664,2.06-3.426,2.06h-57.65c-4.287,0-5.637-5.213-3.383-7.48c-1.615-6.076-1.607-12.388-1.609-18.646
				c-0.002-1.61,0.811-3.352,2.225-4.146c0.555-1.228,1.682-2.147,3.41-2.147h30.736c6.932,0,14.586-0.826,21.311,1.305
				C363.086,355.996,363,368.161,362.047,378.294z M362.047,339.678c-0.156,1.647-1.023,2.644-2.145,3.09
				c-0.541,1.187-1.664,2.061-3.426,2.061h-57.65c-4.287,0-5.637-5.214-3.383-7.481c-1.615-6.076-1.607-12.388-1.609-18.646
				c-0.002-1.611,0.811-3.352,2.225-4.146c0.555-1.228,1.682-2.148,3.41-2.148h30.736c6.932,0,14.586-0.826,21.311,1.305
				C363.086,317.379,363,329.544,362.047,339.678z M362.379,299.353c-0.156,1.648-1.023,2.644-2.145,3.09
				c-0.541,1.186-1.664,2.06-3.426,2.06h-57.65c-4.287,0-5.637-5.213-3.383-7.48c-1.615-6.076-1.607-12.388-1.609-18.646
				c-0.002-1.61,0.809-3.352,2.225-4.146c0.555-1.229,1.682-2.148,3.41-2.148h30.736c6.932,0,14.586-0.826,21.309,1.305
				C363.418,277.054,363.332,289.219,362.379,299.353z M362.379,260.737c-0.156,1.647-1.023,2.644-2.145,3.09
				c-0.541,1.186-1.664,2.06-3.426,2.06h-57.65c-4.287,0-5.637-5.213-3.383-7.481c-1.615-6.076-1.607-12.388-1.609-18.646
				c-0.002-1.61,0.809-3.352,2.225-4.145c0.555-1.229,1.682-2.148,3.41-2.148h30.736c6.932,0,14.586-0.826,21.309,1.305
				C363.418,238.438,363.332,250.603,362.379,260.737z M367.23,124.45c0-1.61,0.811-3.352,2.227-4.146
				c0.555-1.229,1.68-2.148,3.41-2.148h30.736c6.932,0,14.586-0.826,21.309,1.305c11.572,3.667,11.486,15.832,10.531,25.965
				c-0.154,1.648-1.021,2.644-2.143,3.09c-0.541,1.186-1.664,2.06-3.426,2.06h-57.65c-4.287,0-5.637-5.213-3.383-7.48
				C367.227,137.02,367.234,130.708,367.23,124.45z M436.299,377c-0.156,1.648-1.023,2.645-2.145,3.09
				c-0.541,1.186-1.664,2.06-3.426,2.06h-57.65c-4.287,0-5.637-5.213-3.383-7.481c-1.615-6.076-1.607-12.388-1.609-18.646
				c-0.002-1.611,0.811-3.352,2.225-4.146c0.555-1.229,1.682-2.148,3.41-2.148h30.736c6.932,0,14.586-0.826,21.311,1.305
				C437.338,354.703,437.252,366.868,436.299,377z M436.299,338.385c-0.156,1.648-1.023,2.644-2.145,3.09
				c-0.541,1.186-1.664,2.06-3.426,2.06h-57.65c-4.287,0-5.637-5.213-3.383-7.481c-1.615-6.076-1.607-12.388-1.609-18.646
				c-0.002-1.61,0.811-3.352,2.225-4.146c0.555-1.228,1.682-2.147,3.41-2.147h30.736c6.932,0,14.586-0.826,21.311,1.305
				C437.338,316.086,437.252,328.251,436.299,338.385z M436.631,298.059c-0.156,1.648-1.023,2.645-2.145,3.09
				c-0.541,1.187-1.664,2.061-3.426,2.061h-57.65c-4.287,0-5.637-5.213-3.383-7.481c-1.615-6.076-1.607-12.388-1.609-18.646
				c-0.002-1.611,0.809-3.352,2.225-4.146c0.555-1.229,1.682-2.148,3.41-2.148h30.736c6.932,0,14.586-0.826,21.309,1.305
				C437.67,275.761,437.584,287.926,436.631,298.059z M436.631,259.443c-0.156,1.648-1.023,2.644-2.145,3.09
				c-0.541,1.186-1.664,2.06-3.426,2.06h-57.65c-4.287,0-5.637-5.213-3.383-7.48c-1.615-6.076-1.607-12.388-1.609-18.646
				c-0.002-1.61,0.809-3.352,2.225-4.146c0.555-1.229,1.682-2.147,3.41-2.147h30.736c6.932,0,14.586-0.826,21.309,1.305
				C437.67,237.145,437.584,249.31,436.631,259.443z"/>
		</g>
	</g>
	<g>
		<g>
			<path d="M449.795,111.322c-32.275-43.318-78.488-76.688-131.186-89.764C262.486,7.63,203.236,19.199,152.164,44.663
				c-30.236,15.075-58.496,35.714-80.35,61.636C50.6,131.462,37.375,162.032,26.777,192.88c-0.256,0.744-0.352,1.467-0.33,2.154
				c-4.104,12.875-7.854,25.912-10.215,39.207c-2.734,15.402-3.781,31.129-3.389,46.76c0.744,29.72,8.414,58.99,19.695,86.379
				c9.992,24.256,24.025,46.751,42.189,65.721c18.887,19.725,42.936,33.965,68.283,43.736c26.076,10.053,53.76,15.308,81.527,17.744
				c27.324,2.398,54.975,2.654,82.24-0.545c27.273-3.201,54.252-10.22,78.996-22.248c24.127-11.729,44.865-28.396,61.748-49.225
				c34.008-41.956,49.566-96.359,51.531-149.679C501.186,215.115,484.379,157.738,449.795,111.322z M488.184,270.115
				c-0.928,53.627-17.793,108.766-52.898,149.969c-36.473,42.809-91.234,60.682-145.873,64.527
				c-27.461,1.934-55.426,0.707-82.678-3.068c-27.834-3.855-55.201-11.34-80.309-24.105c-24.256-12.33-44.695-30.068-60.58-52.119
				c-15.838-21.984-26.137-47.05-33.828-72.885c-6.867-23.062-9.371-47.504-7.92-71.501c1.449-23.942,7.598-46.854,15.004-69.556
				c0.162-0.496,0.246-0.965,0.275-1.408c8.168-22.74,17.924-45.056,31.85-64.896c15.965-22.748,37.58-41.354,60.797-56.39
				C179.818,37.728,239.17,20.75,296.047,28.448c55.027,7.448,104.027,38.906,138.771,81.513
				C471.756,155.259,489.189,211.958,488.184,270.115z"/>
		</g>
	</g>
	<g>
		<g>
			<path class="st4" d="M133.969,363.806c-1.213-2.516-4.344-3.2-6.855-3.507c-7.193-0.877-14.697-0.283-21.934-0.283H86.098
				c-0.334,0.419-0.75,0.757-1.217,1.011c-0.291,0.791-0.777,1.375-1.385,1.755c0.045,4.081,0.297,8.183,1.479,12.055
				c0.059,0.194,0.102,0.383,0.135,0.57h49.869C135.338,371.582,135.615,367.225,133.969,363.806z"/>
		</g>
	</g>
	<g>
		<g>
			<path class="st4" d="M133.969,284.865c-1.213-2.516-4.344-3.2-6.855-3.507c-7.193-0.877-14.697-0.283-21.934-0.283H86.098
				c-0.334,0.419-0.75,0.757-1.217,1.011c-0.291,0.791-0.777,1.376-1.385,1.756c0.045,4.081,0.297,8.183,1.479,12.055
				c0.059,0.194,0.102,0.382,0.135,0.569h49.869C135.338,292.64,135.615,288.283,133.969,284.865z"/>
		</g>
	</g>
	<g>
		<g>
			<path class="st4" d="M133.969,325.19c-1.213-2.516-4.344-3.201-6.855-3.507c-7.193-0.877-14.697-0.284-21.934-0.284H86.098
				c-0.334,0.419-0.75,0.757-1.217,1.012c-0.291,0.79-0.777,1.375-1.385,1.755c0.045,4.081,0.297,8.183,1.479,12.055
				c0.059,0.193,0.102,0.383,0.135,0.569h49.869C135.338,332.965,135.615,328.609,133.969,325.19z"/>
		</g>
	</g>
	<g>
		<g>
			<path class="st4" d="M133.969,246.249c-1.213-2.515-4.344-3.2-6.855-3.506c-7.193-0.877-14.697-0.284-21.934-0.284H86.098
				c-0.334,0.419-0.75,0.757-1.217,1.011c-0.291,0.791-0.777,1.375-1.385,1.755c0.045,4.081,0.297,8.184,1.479,12.056
				c0.059,0.193,0.102,0.382,0.135,0.569h49.869C135.338,254.024,135.615,249.667,133.969,246.249z"/>
		</g>
	</g>
	<g>
		<g>
			<path d="M132.662,352.806c-6.725-2.131-14.379-1.305-21.309-1.305H80.617c-1.73,0-2.855,0.92-3.41,2.148
				c-1.416,0.793-2.229,2.535-2.227,4.145c0.002,6.259-0.006,12.57,1.609,18.646c-2.252,2.268-0.904,7.481,3.385,7.481h57.648
				c1.762,0,2.887-0.874,3.426-2.06c1.121-0.446,1.988-1.442,2.145-3.09C144.148,368.638,144.232,356.473,132.662,352.806z
				 M134.979,375.408H85.109c-0.033-0.187-0.076-0.376-0.135-0.57c-1.182-3.872-1.434-7.974-1.479-12.055
				c0.607-0.38,1.094-0.965,1.385-1.755c0.467-0.254,0.883-0.592,1.217-1.011h19.082c7.236,0,14.74-0.594,21.934,0.283
				c2.512,0.307,5.643,0.991,6.855,3.507C135.615,367.225,135.338,371.582,134.979,375.408z"/>
		</g>
	</g>
	<g>
		<g>
			<path d="M132.662,314.19c-6.725-2.131-14.379-1.305-21.309-1.305H80.617c-1.73,0-2.855,0.92-3.41,2.148
				c-1.416,0.793-2.229,2.534-2.227,4.145c0.002,6.258-0.006,12.57,1.609,18.646c-2.252,2.268-0.904,7.481,3.385,7.481h57.648
				c1.762,0,2.887-0.874,3.426-2.061c1.121-0.445,1.988-1.442,2.145-3.09C144.148,330.022,144.232,317.857,132.662,314.19z
				 M134.979,336.792H85.109c-0.033-0.187-0.076-0.376-0.135-0.569c-1.182-3.872-1.434-7.975-1.479-12.055
				c0.607-0.38,1.094-0.965,1.385-1.755c0.467-0.254,0.883-0.593,1.217-1.012h19.082c7.236,0,14.74-0.593,21.934,0.284
				c2.512,0.306,5.643,0.991,6.855,3.507C135.615,328.609,135.338,332.965,134.979,336.792z"/>
		</g>
	</g>
	<g>
		<g>
			<path d="M132.662,273.865c-6.725-2.131-14.379-1.305-21.309-1.305H80.617c-1.73,0-2.855,0.919-3.41,2.147
				c-1.416,0.794-2.229,2.535-2.227,4.146c0.002,6.259-0.006,12.57,1.609,18.646c-2.252,2.268-0.904,7.481,3.385,7.481h57.648
				c1.762,0,2.887-0.874,3.426-2.06c1.121-0.446,1.988-1.442,2.145-3.09C144.148,289.697,144.232,277.532,132.662,273.865z
				 M134.979,296.466H85.109c-0.033-0.187-0.076-0.375-0.135-0.569c-1.182-3.872-1.434-7.974-1.479-12.055
				c0.607-0.38,1.094-0.965,1.385-1.756c0.467-0.254,0.883-0.592,1.217-1.011h19.082c7.236,0,14.74-0.594,21.934,0.283
				c2.512,0.307,5.643,0.991,6.855,3.507C135.615,288.283,135.338,292.64,134.979,296.466z"/>
		</g>
	</g>
	<g>
		<g>
			<path d="M132.662,235.249c-6.725-2.131-14.379-1.305-21.309-1.305H80.617c-1.73,0-2.855,0.92-3.41,2.148
				c-1.416,0.793-2.229,2.534-2.227,4.145c0.002,6.258-0.006,12.57,1.609,18.646c-2.252,2.268-0.904,7.481,3.385,7.481h57.648
				c1.762,0,2.887-0.874,3.426-2.061c1.121-0.445,1.988-1.442,2.145-3.09C144.148,251.081,144.232,238.916,132.662,235.249z
				 M134.979,257.85H85.109c-0.033-0.187-0.076-0.376-0.135-0.569c-1.182-3.872-1.434-7.975-1.479-12.056
				c0.607-0.38,1.094-0.965,1.385-1.755c0.467-0.254,0.883-0.592,1.217-1.011h19.082c7.236,0,14.74-0.593,21.934,0.284
				c2.512,0.306,5.643,0.991,6.855,3.506C135.615,249.667,135.338,254.024,134.979,257.85z"/>
		</g>
	</g>
	<g>
		<g>
			<path class="st3" d="M280.148,360.329c-1.211-2.516-4.342-3.2-6.855-3.506c-7.193-0.877-14.697-0.284-21.934-0.284h-19.082
				c-0.334,0.419-0.75,0.757-1.215,1.011c-0.291,0.791-0.779,1.375-1.385,1.755c0.045,4.081,0.297,8.184,1.479,12.056
				c0.059,0.193,0.1,0.382,0.135,0.569h49.867C281.52,368.104,281.795,363.748,280.148,360.329z"/>
		</g>
	</g>
	<g>
		<g>
			<path class="st3" d="M280.148,205.071c-1.211-2.516-4.342-3.201-6.855-3.507c-7.193-0.877-14.697-0.284-21.934-0.284h-19.082
				c-0.334,0.419-0.75,0.758-1.215,1.012c-0.291,0.79-0.779,1.375-1.385,1.755c0.045,4.081,0.297,8.183,1.479,12.055
				c0.059,0.194,0.1,0.383,0.135,0.569h49.867C281.52,212.845,281.795,208.489,280.148,205.071z"/>
		</g>
	</g>
	<g>
		<g>
			<path class="st3" d="M280.148,321.713c-1.211-2.516-4.342-3.2-6.855-3.506c-7.193-0.877-14.697-0.284-21.934-0.284h-19.082
				c-0.334,0.419-0.75,0.757-1.215,1.012c-0.291,0.79-0.779,1.375-1.385,1.755c0.045,4.081,0.297,8.183,1.479,12.055
				c0.059,0.193,0.1,0.383,0.135,0.569h49.867C281.52,329.488,281.795,325.131,280.148,321.713z"/>
		</g>
	</g>
	<g>
		<g>
			<path class="st3" d="M280.148,166.455c-1.211-2.516-4.342-3.2-6.855-3.507c-7.193-0.877-14.697-0.284-21.934-0.284h-19.082
				c-0.334,0.419-0.75,0.757-1.215,1.011c-0.291,0.791-0.779,1.375-1.385,1.756c0.045,4.081,0.297,8.183,1.479,12.055
				c0.059,0.194,0.1,0.383,0.135,0.57h49.867C281.52,174.229,281.795,169.873,280.148,166.455z"/>
		</g>
	</g>
	<g>
		<g>
			<path class="st3" d="M280.48,281.387c-1.211-2.516-4.344-3.2-6.855-3.507c-7.193-0.877-14.697-0.283-21.934-0.283h-19.082
				c-0.334,0.419-0.75,0.757-1.215,1.011c-0.291,0.791-0.779,1.375-1.385,1.755c0.045,4.081,0.297,8.183,1.477,12.055
				c0.061,0.194,0.102,0.383,0.137,0.57h49.867C281.852,289.162,282.127,284.806,280.48,281.387z"/>
		</g>
	</g>
	<g>
		<g>
			<path class="st3" d="M280.48,242.771c-1.211-2.515-4.344-3.2-6.855-3.506c-7.193-0.877-14.697-0.284-21.934-0.284h-19.082
				c-0.334,0.419-0.75,0.757-1.215,1.012c-0.291,0.79-0.779,1.375-1.385,1.755c0.045,4.081,0.297,8.184,1.477,12.056
				c0.061,0.193,0.102,0.383,0.137,0.569h49.867C281.852,250.546,282.127,246.19,280.48,242.771z"/>
		</g>
	</g>
	<g>
		<g>
			<path d="M278.842,349.329c-6.723-2.131-14.377-1.305-21.309-1.305h-30.736c-1.73,0-2.855,0.92-3.41,2.148
				c-1.416,0.794-2.227,2.535-2.227,4.146c0.004,6.258-0.004,12.57,1.611,18.646c-2.254,2.268-0.904,7.481,3.383,7.481h57.65
				c1.762,0,2.885-0.874,3.426-2.061c1.121-0.446,1.988-1.442,2.143-3.09C290.328,365.161,290.414,352.996,278.842,349.329z
				 M281.158,371.93h-49.867c-0.035-0.187-0.076-0.376-0.135-0.569c-1.182-3.872-1.434-7.975-1.479-12.056
				c0.605-0.38,1.094-0.965,1.385-1.755c0.465-0.254,0.881-0.592,1.215-1.011h19.082c7.236,0,14.74-0.593,21.934,0.284
				c2.514,0.306,5.645,0.991,6.855,3.506C281.795,363.748,281.52,368.104,281.158,371.93z"/>
		</g>
	</g>
	<g>
		<g>
			<path d="M278.842,310.713c-6.723-2.131-14.377-1.305-21.309-1.305h-30.736c-1.73,0-2.855,0.92-3.41,2.148
				c-1.416,0.794-2.227,2.534-2.227,4.146c0.004,6.258-0.004,12.57,1.611,18.646c-2.254,2.268-0.904,7.481,3.383,7.481h57.65
				c1.762,0,2.885-0.874,3.426-2.061c1.121-0.445,1.988-1.442,2.143-3.09C290.328,326.545,290.414,314.38,278.842,310.713z
				 M281.158,333.314h-49.867c-0.035-0.187-0.076-0.376-0.135-0.569c-1.182-3.872-1.434-7.975-1.479-12.055
				c0.605-0.38,1.094-0.965,1.385-1.755c0.465-0.254,0.881-0.593,1.215-1.012h19.082c7.236,0,14.74-0.593,21.934,0.284
				c2.514,0.306,5.645,0.991,6.855,3.506C281.795,325.131,281.52,329.488,281.158,333.314z"/>
		</g>
	</g>
	<g>
		<g>
			<path d="M279.174,270.387c-6.725-2.131-14.377-1.305-21.309-1.305h-30.736c-1.73,0-2.855,0.919-3.41,2.148
				c-1.416,0.793-2.227,2.535-2.227,4.145c0.004,6.259-0.004,12.57,1.611,18.646c-2.254,2.268-0.904,7.481,3.383,7.481h57.65
				c1.76,0,2.885-0.874,3.426-2.06c1.119-0.446,1.988-1.442,2.143-3.09C290.66,286.219,290.746,274.054,279.174,270.387z
				 M281.49,292.989h-49.867c-0.035-0.187-0.076-0.376-0.137-0.57c-1.18-3.872-1.432-7.974-1.477-12.055
				c0.605-0.38,1.094-0.965,1.385-1.755c0.465-0.254,0.881-0.592,1.215-1.011h19.082c7.236,0,14.74-0.594,21.934,0.283
				c2.512,0.307,5.645,0.991,6.855,3.507C282.127,284.806,281.852,289.162,281.49,292.989z"/>
		</g>
	</g>
	<g>
		<g>
			<path d="M279.174,231.771c-6.725-2.131-14.377-1.305-21.309-1.305h-30.736c-1.73,0-2.855,0.92-3.41,2.148
				c-1.416,0.793-2.227,2.534-2.227,4.145c0.004,6.258-0.004,12.57,1.611,18.646c-2.254,2.268-0.904,7.481,3.383,7.481h57.65
				c1.76,0,2.885-0.874,3.426-2.061c1.119-0.445,1.988-1.442,2.143-3.09C290.66,247.604,290.746,235.438,279.174,231.771z
				 M281.49,254.373h-49.867c-0.035-0.187-0.076-0.376-0.137-0.569c-1.18-3.872-1.432-7.975-1.477-12.056
				c0.605-0.38,1.094-0.965,1.385-1.755c0.465-0.254,0.881-0.593,1.215-1.012h19.082c7.236,0,14.74-0.593,21.934,0.284
				c2.512,0.306,5.645,0.991,6.855,3.506C282.127,246.19,281.852,250.546,281.49,254.373z"/>
		</g>
	</g>
	<g>
		<g>
			<path d="M278.842,194.07c-6.723-2.131-14.377-1.305-21.309-1.305h-30.736c-1.73,0-2.855,0.919-3.41,2.148
				c-1.416,0.794-2.227,2.535-2.227,4.146c0.004,6.258-0.004,12.57,1.611,18.646c-2.254,2.268-0.904,7.481,3.383,7.481h57.65
				c1.762,0,2.885-0.874,3.426-2.06c1.121-0.446,1.988-1.442,2.143-3.09C290.328,209.903,290.414,197.738,278.842,194.07z
				 M281.158,216.671h-49.867c-0.035-0.187-0.076-0.375-0.135-0.569c-1.182-3.872-1.434-7.974-1.479-12.055
				c0.605-0.38,1.094-0.965,1.385-1.755c0.465-0.254,0.881-0.593,1.215-1.012h19.082c7.236,0,14.74-0.593,21.934,0.284
				c2.514,0.306,5.645,0.991,6.855,3.507C281.795,208.489,281.52,212.845,281.158,216.671z"/>
		</g>
	</g>
	<g>
		<g>
			<path d="M278.842,155.455c-6.723-2.131-14.377-1.305-21.309-1.305h-30.736c-1.73,0-2.855,0.919-3.41,2.147
				c-1.416,0.794-2.227,2.535-2.227,4.146c0.004,6.259-0.004,12.57,1.611,18.646c-2.254,2.268-0.904,7.481,3.383,7.481h57.65
				c1.762,0,2.885-0.874,3.426-2.06c1.121-0.446,1.988-1.442,2.143-3.09C290.328,171.287,290.414,159.122,278.842,155.455z
				 M281.158,178.056h-49.867c-0.035-0.187-0.076-0.375-0.135-0.57c-1.182-3.872-1.434-7.974-1.479-12.055
				c0.605-0.38,1.094-0.965,1.385-1.756c0.465-0.254,0.881-0.592,1.215-1.011h19.082c7.236,0,14.74-0.593,21.934,0.284
				c2.514,0.307,5.645,0.991,6.855,3.507C281.795,169.873,281.52,174.229,281.158,178.056z"/>
		</g>
	</g>
	<g>
		<g>
			<path class="st12" d="M352.82,324.712c-1.211-2.516-4.342-3.2-6.854-3.507c-7.195-0.876-14.697-0.283-21.934-0.283h-19.084
				c-0.332,0.419-0.748,0.757-1.215,1.011c-0.291,0.791-0.777,1.375-1.385,1.755c0.045,4.081,0.297,8.184,1.479,12.056
				c0.059,0.193,0.102,0.382,0.135,0.569h49.867C354.191,332.488,354.469,328.131,352.82,324.712z"/>
		</g>
	</g>
	<g>
		<g>
			<path class="st12" d="M352.82,363.329c-1.211-2.516-4.342-3.2-6.854-3.507c-7.195-0.877-14.697-0.284-21.934-0.284h-19.084
				c-0.332,0.419-0.748,0.757-1.215,1.011c-0.291,0.791-0.777,1.375-1.385,1.756c0.045,4.081,0.297,8.183,1.479,12.055
				c0.059,0.194,0.102,0.383,0.135,0.57h49.867C354.191,371.104,354.469,366.747,352.82,363.329z"/>
		</g>
	</g>
	<g>
		<g>
			<path class="st12" d="M352.82,208.07c-1.211-2.515-4.342-3.2-6.854-3.506c-7.195-0.877-14.697-0.284-21.934-0.284h-19.084
				c-0.332,0.419-0.748,0.757-1.215,1.012c-0.291,0.79-0.777,1.375-1.385,1.755c0.045,4.081,0.297,8.184,1.479,12.056
				c0.059,0.193,0.102,0.383,0.135,0.569h49.867C354.191,215.845,354.469,211.489,352.82,208.07z"/>
		</g>
	</g>
	<g>
		<g>
			<path class="st12" d="M353.152,284.387c-1.211-2.516-4.342-3.2-6.855-3.507c-7.193-0.877-14.695-0.284-21.932-0.284h-19.084
				c-0.332,0.419-0.748,0.757-1.215,1.011c-0.291,0.791-0.777,1.375-1.385,1.756c0.045,4.081,0.297,8.183,1.479,12.055
				c0.059,0.194,0.102,0.383,0.135,0.569h49.867C354.523,292.162,354.799,287.805,353.152,284.387z"/>
		</g>
	</g>
	<g>
		<g>
			<path class="st12" d="M353.152,245.771c-1.211-2.516-4.342-3.2-6.855-3.507c-7.193-0.877-14.695-0.283-21.932-0.283h-19.084
				c-0.332,0.419-0.748,0.757-1.215,1.011c-0.291,0.791-0.777,1.376-1.385,1.756c0.045,4.081,0.297,8.183,1.479,12.055
				c0.059,0.194,0.102,0.383,0.135,0.57h49.867C354.523,253.546,354.799,249.189,353.152,245.771z"/>
		</g>
	</g>
	<g>
		<g>
			<path d="M351.516,352.329c-6.725-2.131-14.379-1.305-21.311-1.305h-30.736c-1.729,0-2.855,0.919-3.41,2.147
				c-1.414,0.794-2.227,2.535-2.225,4.146c0.002,6.259-0.006,12.57,1.609,18.646c-2.254,2.268-0.904,7.48,3.383,7.48h57.65
				c1.762,0,2.885-0.874,3.426-2.06c1.121-0.446,1.988-1.442,2.145-3.09C363,368.161,363.086,355.996,351.516,352.329z
				 M353.83,374.93h-49.867c-0.033-0.187-0.076-0.375-0.135-0.57c-1.182-3.872-1.434-7.974-1.479-12.055
				c0.607-0.38,1.094-0.965,1.385-1.756c0.467-0.254,0.883-0.592,1.215-1.011h19.084c7.236,0,14.738-0.593,21.934,0.284
				c2.512,0.307,5.643,0.991,6.854,3.507C354.469,366.747,354.191,371.104,353.83,374.93z"/>
		</g>
	</g>
	<g>
		<g>
			<path d="M351.516,313.712c-6.725-2.131-14.379-1.305-21.311-1.305h-30.736c-1.729,0-2.855,0.92-3.41,2.148
				c-1.414,0.793-2.227,2.535-2.225,4.146c0.002,6.258-0.006,12.57,1.609,18.646c-2.254,2.268-0.904,7.481,3.383,7.481h57.65
				c1.762,0,2.885-0.874,3.426-2.061c1.121-0.446,1.988-1.442,2.145-3.09C363,329.544,363.086,317.379,351.516,313.712z
				 M353.83,336.314h-49.867c-0.033-0.187-0.076-0.376-0.135-0.569c-1.182-3.872-1.434-7.975-1.479-12.056
				c0.607-0.38,1.094-0.965,1.385-1.755c0.467-0.254,0.883-0.592,1.215-1.011h19.084c7.236,0,14.738-0.593,21.934,0.283
				c2.512,0.307,5.643,0.991,6.854,3.507C354.469,328.131,354.191,332.488,353.83,336.314z"/>
		</g>
	</g>
	<g>
		<g>
			<path d="M351.846,273.387c-6.723-2.131-14.377-1.305-21.309-1.305h-30.736c-1.729,0-2.855,0.919-3.41,2.148
				c-1.416,0.794-2.227,2.535-2.225,4.146c0.002,6.258-0.006,12.57,1.609,18.646c-2.254,2.268-0.904,7.48,3.383,7.48h57.65
				c1.762,0,2.885-0.874,3.426-2.06c1.121-0.446,1.988-1.442,2.145-3.09C363.332,289.219,363.418,277.054,351.846,273.387z
				 M354.162,295.988h-49.867c-0.033-0.187-0.076-0.375-0.135-0.569c-1.182-3.872-1.434-7.974-1.479-12.055
				c0.607-0.38,1.094-0.965,1.385-1.756c0.467-0.254,0.883-0.592,1.215-1.011h19.084c7.236,0,14.738-0.593,21.932,0.284
				c2.514,0.307,5.645,0.991,6.855,3.507C354.799,287.805,354.523,292.162,354.162,295.988z"/>
		</g>
	</g>
	<g>
		<g>
			<path d="M351.846,234.771c-6.723-2.131-14.377-1.305-21.309-1.305h-30.736c-1.729,0-2.855,0.919-3.41,2.148
				c-1.416,0.793-2.227,2.535-2.225,4.145c0.002,6.259-0.006,12.57,1.609,18.646c-2.254,2.268-0.904,7.481,3.383,7.481h57.65
				c1.762,0,2.885-0.874,3.426-2.06c1.121-0.446,1.988-1.442,2.145-3.09C363.332,250.603,363.418,238.438,351.846,234.771z
				 M354.162,257.373h-49.867c-0.033-0.187-0.076-0.376-0.135-0.57c-1.182-3.872-1.434-7.974-1.479-12.055
				c0.607-0.38,1.094-0.965,1.385-1.756c0.467-0.254,0.883-0.592,1.215-1.011h19.084c7.236,0,14.738-0.594,21.932,0.283
				c2.514,0.307,5.645,0.991,6.855,3.507C354.799,249.189,354.523,253.546,354.162,257.373z"/>
		</g>
	</g>
	<g>
		<g>
			<path d="M351.516,197.07c-6.725-2.131-14.379-1.305-21.311-1.305h-30.736c-1.729,0-2.855,0.92-3.41,2.148
				c-1.414,0.793-2.227,2.534-2.225,4.145c0.002,6.258-0.006,12.57,1.609,18.646c-2.254,2.268-0.904,7.481,3.383,7.481h57.65
				c1.762,0,2.885-0.874,3.426-2.061c1.121-0.445,1.988-1.442,2.145-3.09C363,212.902,363.086,200.737,351.516,197.07z
				 M353.83,219.671h-49.867c-0.033-0.187-0.076-0.376-0.135-0.569c-1.182-3.872-1.434-7.975-1.479-12.056
				c0.607-0.38,1.094-0.965,1.385-1.755c0.467-0.254,0.883-0.593,1.215-1.012h19.084c7.236,0,14.738-0.593,21.934,0.284
				c2.512,0.306,5.643,0.991,6.854,3.506C354.469,211.489,354.191,215.845,353.83,219.671z"/>
		</g>
	</g>
	<g>
		<g>
			<path class="st0" d="M427.072,362.036c-1.211-2.516-4.342-3.2-6.854-3.507c-7.195-0.877-14.697-0.284-21.934-0.284h-19.084
				c-0.332,0.419-0.748,0.758-1.215,1.012c-0.291,0.791-0.777,1.375-1.385,1.756c0.045,4.081,0.297,8.183,1.479,12.055
				c0.059,0.194,0.102,0.383,0.135,0.569h49.867C428.443,369.81,428.721,365.454,427.072,362.036z"/>
		</g>
	</g>
	<g>
		<g>
			<path class="st0" d="M427.072,323.419c-1.211-2.516-4.342-3.2-6.854-3.507c-7.195-0.877-14.697-0.283-21.934-0.283h-19.084
				c-0.332,0.419-0.748,0.757-1.215,1.011c-0.291,0.791-0.777,1.375-1.385,1.756c0.045,4.081,0.297,8.183,1.479,12.055
				c0.059,0.194,0.102,0.382,0.135,0.569h49.867C428.443,331.194,428.721,326.838,427.072,323.419z"/>
		</g>
	</g>
	<g>
		<g>
			<path class="st0" d="M427.072,206.777c-1.211-2.516-4.342-3.2-6.854-3.507c-7.195-0.877-14.697-0.283-21.934-0.283h-19.084
				c-0.332,0.419-0.748,0.757-1.215,1.011c-0.291,0.791-0.777,1.375-1.385,1.755c0.045,4.081,0.297,8.183,1.479,12.055
				c0.059,0.194,0.102,0.383,0.135,0.57h49.867C428.443,214.552,428.721,210.196,427.072,206.777z"/>
		</g>
	</g>
	<g>
		<g>
			<path class="st0" d="M427.072,168.161c-1.211-2.516-4.342-3.201-6.854-3.507c-7.195-0.877-14.697-0.284-21.934-0.284h-19.084
				c-0.332,0.419-0.748,0.757-1.215,1.012c-0.291,0.79-0.777,1.375-1.385,1.755c0.045,4.081,0.297,8.183,1.479,12.055
				c0.059,0.193,0.102,0.383,0.135,0.569h49.867C428.443,175.936,428.721,171.58,427.072,168.161z"/>
		</g>
	</g>
	<g>
		<g>
			<path class="st0" d="M427.404,283.094c-1.211-2.515-4.342-3.2-6.855-3.506c-7.193-0.877-14.695-0.284-21.932-0.284h-19.084
				c-0.332,0.419-0.748,0.758-1.215,1.012c-0.291,0.79-0.777,1.375-1.385,1.755c0.045,4.081,0.297,8.183,1.479,12.055
				c0.059,0.193,0.102,0.383,0.135,0.569h49.867C428.775,290.869,429.053,286.512,427.404,283.094z"/>
		</g>
	</g>
	<g>
		<g>
			<path class="st0" d="M427.404,244.478c-1.211-2.516-4.342-3.2-6.855-3.507c-7.193-0.877-14.695-0.284-21.932-0.284h-19.084
				c-0.332,0.419-0.748,0.757-1.215,1.011c-0.291,0.791-0.777,1.375-1.385,1.756c0.045,4.081,0.297,8.183,1.479,12.055
				c0.059,0.194,0.102,0.383,0.135,0.57h49.867C428.775,252.253,429.053,247.896,427.404,244.478z"/>
		</g>
	</g>
	<g>
		<g>
			<path d="M425.768,351.036c-6.725-2.131-14.379-1.305-21.311-1.305h-30.736c-1.729,0-2.855,0.919-3.41,2.148
				c-1.414,0.794-2.227,2.535-2.225,4.146c0.002,6.258-0.006,12.57,1.609,18.646c-2.254,2.268-0.904,7.481,3.383,7.481h57.65
				c1.762,0,2.885-0.874,3.426-2.06c1.121-0.446,1.988-1.442,2.145-3.09C437.252,366.868,437.338,354.703,425.768,351.036z
				 M428.082,373.636h-49.867c-0.033-0.187-0.076-0.375-0.135-0.569c-1.182-3.872-1.434-7.974-1.479-12.055
				c0.607-0.381,1.094-0.965,1.385-1.756c0.467-0.254,0.883-0.592,1.215-1.012h19.084c7.236,0,14.738-0.593,21.934,0.284
				c2.512,0.307,5.643,0.991,6.854,3.507C428.721,365.454,428.443,369.81,428.082,373.636z"/>
		</g>
	</g>
	<g>
		<g>
			<path d="M425.768,312.419c-6.725-2.131-14.379-1.305-21.311-1.305h-30.736c-1.729,0-2.855,0.919-3.41,2.147
				c-1.414,0.794-2.227,2.535-2.225,4.146c0.002,6.259-0.006,12.57,1.609,18.646c-2.254,2.268-0.904,7.481,3.383,7.481h57.65
				c1.762,0,2.885-0.874,3.426-2.06c1.121-0.446,1.988-1.442,2.145-3.09C437.252,328.251,437.338,316.086,425.768,312.419z
				 M428.082,335.021h-49.867c-0.033-0.187-0.076-0.375-0.135-0.569c-1.182-3.872-1.434-7.974-1.479-12.055
				c0.607-0.38,1.094-0.965,1.385-1.756c0.467-0.254,0.883-0.592,1.215-1.011h19.084c7.236,0,14.738-0.594,21.934,0.283
				c2.512,0.307,5.643,0.991,6.854,3.507C428.721,326.838,428.443,331.194,428.082,335.021z"/>
		</g>
	</g>
	<g>
		<g>
			<path d="M426.098,272.094c-6.723-2.131-14.377-1.305-21.309-1.305h-30.736c-1.729,0-2.855,0.92-3.41,2.148
				c-1.416,0.794-2.227,2.535-2.225,4.146c0.002,6.258-0.006,12.57,1.609,18.646c-2.254,2.268-0.904,7.481,3.383,7.481h57.65
				c1.762,0,2.885-0.874,3.426-2.061c1.121-0.445,1.988-1.441,2.145-3.09C437.584,287.926,437.67,275.761,426.098,272.094z
				 M428.414,294.695h-49.867c-0.033-0.187-0.076-0.376-0.135-0.569c-1.182-3.872-1.434-7.974-1.479-12.055
				c0.607-0.38,1.094-0.965,1.385-1.755c0.467-0.254,0.883-0.593,1.215-1.012h19.084c7.236,0,14.738-0.593,21.932,0.284
				c2.514,0.306,5.645,0.991,6.855,3.506C429.053,286.512,428.775,290.869,428.414,294.695z"/>
		</g>
	</g>
	<g>
		<g>
			<path d="M426.098,233.478c-6.723-2.131-14.377-1.305-21.309-1.305h-30.736c-1.729,0-2.855,0.919-3.41,2.147
				c-1.416,0.794-2.227,2.535-2.225,4.146c0.002,6.258-0.006,12.57,1.609,18.646c-2.254,2.268-0.904,7.48,3.383,7.48h57.65
				c1.762,0,2.885-0.874,3.426-2.06c1.121-0.446,1.988-1.442,2.145-3.09C437.584,249.31,437.67,237.145,426.098,233.478z
				 M428.414,256.079h-49.867c-0.033-0.187-0.076-0.376-0.135-0.57c-1.182-3.872-1.434-7.974-1.479-12.055
				c0.607-0.38,1.094-0.965,1.385-1.756c0.467-0.254,0.883-0.592,1.215-1.011h19.084c7.236,0,14.738-0.593,21.932,0.284
				c2.514,0.307,5.645,0.991,6.855,3.507C429.053,247.896,428.775,252.253,428.414,256.079z"/>
		</g>
	</g>
	<g>
		<g>
			<path d="M425.768,195.777c-6.725-2.131-14.379-1.305-21.311-1.305h-30.736c-1.729,0-2.855,0.92-3.41,2.148
				c-1.414,0.793-2.227,2.535-2.225,4.145c0.002,6.259-0.006,12.57,1.609,18.646c-2.254,2.268-0.904,7.481,3.383,7.481h57.65
				c1.762,0,2.885-0.874,3.426-2.06c1.121-0.446,1.988-1.442,2.145-3.09C437.252,211.609,437.338,199.444,425.768,195.777z
				 M428.082,218.378h-49.867c-0.033-0.187-0.076-0.376-0.135-0.57c-1.182-3.872-1.434-7.974-1.479-12.055
				c0.607-0.38,1.094-0.965,1.385-1.755c0.467-0.254,0.883-0.592,1.215-1.011h19.084c7.236,0,14.738-0.594,21.934,0.283
				c2.512,0.307,5.643,0.991,6.854,3.507C428.721,210.196,428.443,214.552,428.082,218.378z"/>
		</g>
	</g>
	<g>
		<g>
			<path d="M425.768,157.161c-6.725-2.131-14.379-1.305-21.311-1.305h-30.736c-1.729,0-2.855,0.92-3.41,2.148
				c-1.414,0.793-2.227,2.534-2.225,4.145c0.002,6.258-0.006,12.57,1.609,18.646c-2.254,2.268-0.904,7.481,3.383,7.481h57.65
				c1.762,0,2.885-0.874,3.426-2.061c1.121-0.445,1.988-1.442,2.145-3.09C437.252,172.993,437.338,160.828,425.768,157.161z
				 M428.082,179.762h-49.867c-0.033-0.187-0.076-0.376-0.135-0.569c-1.182-3.872-1.434-7.975-1.479-12.055
				c0.607-0.38,1.094-0.965,1.385-1.755c0.467-0.254,0.883-0.593,1.215-1.012h19.084c7.236,0,14.738-0.593,21.934,0.284
				c2.512,0.306,5.643,0.991,6.854,3.507C428.721,171.58,428.443,175.936,428.082,179.762z"/>
		</g>
	</g>
	<g>
		<g>
			<path class="st0" d="M426.219,130.461c-1.211-2.516-4.342-3.2-6.855-3.507c-7.193-0.877-14.695-0.284-21.932-0.284h-19.084
				c-0.334,0.419-0.75,0.757-1.215,1.011c-0.291,0.791-0.777,1.375-1.385,1.756c0.045,4.081,0.297,8.183,1.479,12.055
				c0.059,0.194,0.102,0.383,0.135,0.569h49.867C427.59,138.236,427.865,133.879,426.219,130.461z"/>
		</g>
	</g>
	<g>
		<g>
			<path d="M424.912,119.461c-6.723-2.131-14.377-1.305-21.309-1.305h-30.736c-1.73,0-2.855,0.919-3.41,2.148
				c-1.416,0.794-2.227,2.535-2.227,4.146c0.004,6.258-0.004,12.57,1.611,18.646c-2.254,2.268-0.904,7.48,3.383,7.48h57.65
				c1.762,0,2.885-0.874,3.426-2.06c1.121-0.446,1.988-1.442,2.143-3.09C436.398,135.293,436.484,123.128,424.912,119.461z
				 M427.229,142.062h-49.867c-0.033-0.187-0.076-0.375-0.135-0.569c-1.182-3.872-1.434-7.974-1.479-12.055
				c0.607-0.38,1.094-0.965,1.385-1.756c0.465-0.254,0.881-0.592,1.215-1.011h19.084c7.236,0,14.738-0.593,21.932,0.284
				c2.514,0.307,5.645,0.991,6.855,3.507C427.865,133.879,427.59,138.236,427.229,142.062z"/>
		</g>
	</g>
	<g>
		<g>
			<path class="st12" d="M207.098,362.495c-1.213-2.515-4.344-3.2-6.855-3.506c-7.195-0.877-14.697-0.284-21.934-0.284h-19.084
				c-0.332,0.419-0.748,0.757-1.215,1.012c-0.291,0.79-0.777,1.375-1.385,1.755c0.045,4.081,0.297,8.184,1.479,12.056
				c0.059,0.193,0.102,0.383,0.135,0.569h49.867C208.467,370.27,208.744,365.914,207.098,362.495z"/>
		</g>
	</g>
	<g>
		<g>
			<path class="st12" d="M207.098,323.879c-1.213-2.515-4.344-3.2-6.855-3.506c-7.195-0.877-14.697-0.284-21.934-0.284h-19.084
				c-0.332,0.419-0.748,0.758-1.215,1.012c-0.291,0.79-0.777,1.375-1.385,1.755c0.045,4.081,0.297,8.183,1.479,12.055
				c0.059,0.193,0.102,0.383,0.135,0.569h49.867C208.467,331.654,208.744,327.297,207.098,323.879z"/>
		</g>
	</g>
	<g>
		<g>
			<path d="M205.791,351.495c-6.725-2.131-14.379-1.305-21.311-1.305h-30.736c-1.729,0-2.855,0.92-3.41,2.148
				c-1.414,0.793-2.227,2.534-2.225,4.145c0.002,6.258-0.006,12.57,1.609,18.646c-2.252,2.268-0.904,7.481,3.383,7.481h57.65
				c1.762,0,2.885-0.874,3.426-2.061c1.121-0.445,1.988-1.442,2.145-3.09C217.275,367.327,217.361,355.162,205.791,351.495z
				 M208.105,374.096h-49.867c-0.033-0.187-0.076-0.376-0.135-0.569c-1.182-3.872-1.434-7.975-1.479-12.056
				c0.607-0.38,1.094-0.965,1.385-1.755c0.467-0.254,0.883-0.593,1.215-1.012h19.084c7.236,0,14.738-0.593,21.934,0.284
				c2.512,0.306,5.643,0.991,6.855,3.506C208.744,365.914,208.467,370.27,208.105,374.096z"/>
		</g>
	</g>
	<g>
		<g>
			<path d="M205.791,312.879c-6.725-2.131-14.379-1.305-21.311-1.305h-30.736c-1.729,0-2.855,0.919-3.41,2.148
				c-1.414,0.794-2.227,2.535-2.225,4.146c0.002,6.258-0.006,12.57,1.609,18.646c-2.252,2.268-0.904,7.481,3.383,7.481h57.65
				c1.762,0,2.885-0.874,3.426-2.061c1.121-0.445,1.988-1.441,2.145-3.09C217.275,328.711,217.361,316.546,205.791,312.879z
				 M208.105,335.48h-49.867c-0.033-0.187-0.076-0.376-0.135-0.569c-1.182-3.872-1.434-7.974-1.479-12.055
				c0.607-0.38,1.094-0.965,1.385-1.755c0.467-0.254,0.883-0.593,1.215-1.012h19.084c7.236,0,14.738-0.593,21.934,0.284
				c2.512,0.306,5.643,0.991,6.855,3.506C208.744,327.297,208.467,331.654,208.105,335.48z"/>
		</g>
	</g>
</g>
</svg>
